<!-- Created with Inkscape (http://www.inkscape.org/) -->
<svg
   width="314.51038"
   height="163.16768"
   viewBox="0 0 83.214206 43.171449"
   version="1.1"
   id="svg1"
   sodipodi:docname="kentuxLogoDM.svg"
   xmlns:inkscape="http://www.inkscape.org/namespaces/inkscape"
   xmlns:sodipodi="http://sodipodi.sourceforge.net/DTD/sodipodi-0.dtd"
   xmlns="http://www.w3.org/2000/svg"
   xmlns:svg="http://www.w3.org/2000/svg">
  <sodipodi:namedview
     id="namedview1"
     pagecolor="#ffffff"
     bordercolor="#000000"
     borderopacity="0.25"
     inkscape:showpageshadow="2"
     inkscape:pageopacity="0.0"
     inkscape:pagecheckerboard="0"
     inkscape:deskcolor="#d1d1d1"
     inkscape:document-units="mm"
     inkscape:zoom="1.9477379"
     inkscape:cx="242.3324"
     inkscape:cy="138.87905"
     inkscape:window-width="1920"
     inkscape:window-height="991"
     inkscape:window-x="-9"
     inkscape:window-y="-9"
     inkscape:window-maximized="1"
     inkscape:current-layer="layer1">
    <inkscape:page
       x="0"
       y="0"
       width="83.214203"
       height="43.171448"
       id="page2"
       margin="0"
       bleed="0" />
  </sodipodi:namedview>
  <defs
     id="defs1" />
  <g
     inkscape:label="Capa 1"
     inkscape:groupmode="layer"
     id="layer1"
     transform="translate(-23.52466,-4.2829088)">
    <path
       style="fill:#000000;stroke-width:0.264583"
       id="path9"
       d="m 25.957797,8.2012838 c 0.629227,0.747336 0.99936,1.664893 1.328748,2.5735302 0.517879,1.42861 0.559882,1.690759 1.001607,3.242511 0.755398,2.727008 1.328766,5.501714 1.769983,8.296072 0.336793,2.133009 0.553331,3.71321 0.593455,5.880369 0.01783,0.963486 -0.05336,1.926561 -0.08004,2.889843 -0.242242,3.011961 -0.807593,6.052778 -2.335065,8.702802 -0.692734,1.201827 -0.979043,1.420191 -1.871035,2.405758 -0.822232,0.814806 -1.814904,1.346425 -2.840789,1.846522 0,0 3.150875,2.064033 3.150875,2.064033 v 0 c 1.014503,-0.57273 2.00201,-1.173596 2.81708,-2.024721 0.85558,-1.029571 1.174723,-1.313866 1.828234,-2.544884 1.462058,-2.754083 1.971619,-5.870739 2.183836,-8.945232 0.06443,-2.561497 0.161748,-3.352051 -0.08959,-5.924804 -0.09534,-0.975934 -0.265601,-1.943179 -0.414477,-2.91239 -0.422307,-2.74927 -0.95155,-5.478643 -1.509117,-8.203213 -0.470361,-1.969919 -0.875454,-4.022635 -1.892208,-5.7990142 z" />
    <path
       style="fill:#000000;stroke-width:0.264583"
       id="path10"
       d="m 33.940517,29.585702 c 0.963938,-0.710522 1.99668,-1.378884 2.901592,-2.163172 0.29083,-0.252064 0.557991,-0.530204 0.836983,-0.795309 2.127004,-2.088869 3.364704,-4.828508 4.573905,-7.504723 1.046462,-2.47046 0.5324,-1.244341 1.542667,-3.678158 0,0 -3.077597,-1.72211 -3.077597,-1.72211 v 0 c -0.98611,2.434397 -0.472802,1.214517 -1.541481,3.658989 -1.260321,2.595602 -2.571689,5.247386 -4.663588,7.286276 -0.283202,0.248907 -0.556741,0.509251 -0.849603,0.746715 -0.938742,0.761161 -1.979626,1.41936 -3.025984,2.018673 z" />
    <path
       style="fill:#000000;stroke-width:0.264583"
       id="path11"
       d="m 30.961875,26.653875 c 0.963046,0.814832 1.487215,1.978176 1.955223,3.1193 0.802267,2.160403 1.259107,4.424199 1.67972,6.683396 0.214427,1.028221 0.395671,2.072736 0.708912,3.077785 0.0888,0.284937 0.169566,0.575942 0.305567,0.84161 0.424008,0.828278 0.688305,0.970896 1.36054,1.619927 1.963299,1.275001 2.709648,1.811758 5.572784,2.976682 0.508288,0.206806 1.084831,0.186579 1.633209,0.206811 0.945664,0.03489 2.507443,-0.107873 3.420462,-0.406357 0.523529,-0.171154 0.995357,-0.471985 1.493036,-0.707975 1.608624,-1.335995 0.8871,-0.611854 2.179217,-2.157727 0,0 -3.130047,-1.877724 -3.130047,-1.877724 v 0 c -1.210395,1.47947 -0.5285,0.794456 -2.059075,2.04163 -0.476967,0.214093 -0.930913,0.489485 -1.430899,0.642282 -0.963747,0.294523 -2.362623,0.386654 -3.353757,0.304916 -0.547995,-0.04519 -1.71585,-0.834636 -1.623402,-0.292611 0.123455,0.723805 1.246913,0.789054 1.791984,1.281023 0.295671,0.266864 -0.689822,-0.398365 -1.034733,-0.597546 C 39.808433,42.87862 39.457299,42.67615 39.044948,41.968564 38.896914,41.714538 38.805701,41.43068 38.708726,41.153119 38.360797,40.157291 38.152995,39.111305 37.939469,38.081505 37.502462,35.821569 37.072752,33.552666 36.346902,31.36303 35.919333,30.208124 35.462643,29.065738 34.630825,28.13478 Z" />
    <path
       style="fill:#000000;stroke-width:0.264583"
       id="path12"
       d="m 44.897386,26.522817 c -0.198416,1.002797 -0.261017,2.02525 -0.34906,3.04206 -0.161522,2.163543 -0.248128,4.330496 -0.0597,6.494055 0,0 3.398636,1.682062 3.398636,1.682062 v 0 c -0.04187,-0.284396 -0.09518,-0.567341 -0.1256,-0.853186 -0.197131,-1.852015 -0.03653,-3.715451 0.154037,-5.560547 0.130554,-0.976873 0.23607,-1.963322 0.459806,-2.923545 z" />
    <path
       style="fill:#000000;stroke-width:0.264583"
       id="path13"
       d="m 44.302256,35.798677 c 0.685908,0.899382 1.257308,1.872578 1.797669,2.863363 1.136835,2.036244 1.081241,1.848824 4.456449,3.184639 0.172995,0.06847 0.322397,-0.185796 0.483597,-0.278696 1.044046,-0.752967 1.833055,-1.776299 2.623047,-2.776625 0.19856,-0.251423 0.377145,-0.519996 0.59567,-0.754274 0.158634,-0.170072 0.353692,-0.302083 0.53054,-0.453123 1.488361,0.03653 1.099127,0.08854 -2.608408,-1.569553 -0.157655,-0.07051 0.254521,0.238204 0.34962,0.382365 0.412793,0.625761 0.474126,1.435809 0.58157,2.150896 0.129199,0.894294 0.220203,1.79316 0.308007,2.692204 0,0 3.402089,1.688026 3.402089,1.688026 v 0 C 56.717331,42.025844 56.607339,41.124443 56.502,40.222455 56.45078,39.704694 56.40772,39.054716 56.280578,38.540922 55.818399,36.673173 53.46234,34.550524 51.532244,35.575829 c -0.170667,0.178001 -0.353875,0.344773 -0.512003,0.534003 -0.203541,0.243578 -0.376505,0.511241 -0.571042,0.762072 -0.750038,0.967073 -1.550445,1.941081 -2.638457,2.540815 -1.592842,0.378211 -0.513601,0.02003 2.694472,1.980977 0.07351,0.04493 -0.164984,-0.06352 -0.227322,-0.122981 -0.289894,-0.276529 -0.37723,-0.727458 -0.63799,-1.02558 -0.552593,-0.976694 -1.095695,-1.958348 -1.746544,-2.87523 z" />
    <path
       style="fill:#000000;stroke-width:0.264583"
       id="path14"
       d="m 47.77234,34.19631 c 1.482461,-0.989044 3.119438,-1.693413 4.789567,-2.294916 1.349262,-0.500809 2.733323,-0.324596 4.121806,-0.155126 0,0 -3.000742,-2.230344 -3.000742,-2.230344 v 0 c -1.4306,-0.137406 -2.85785,-0.265912 -4.225946,0.294539 -1.701954,0.654637 -3.369435,1.391113 -4.98779,2.233028 z" />
    <path
       style="fill:#000000;stroke-width:0.264583"
       id="path15"
       d="m 48.318753,28.608929 c 0.656449,-0.615899 1.442233,-0.671274 2.296789,-0.744177 0.203113,-0.0583 0.413962,-0.0944 0.609341,-0.174906 1.898989,-0.782463 3.746312,-3.040356 5.07302,-4.525962 0.435063,-0.539015 0.870122,-1.078027 1.305182,-1.617041 0,0 -3.001058,-1.799127 -3.001058,-1.799127 v 0 c -0.441595,0.527259 -0.883192,1.054521 -1.32479,1.581782 -1.349076,1.415378 -3.270919,3.576371 -5.218279,4.171781 -0.196813,0.06018 -0.404323,0.07715 -0.606486,0.115718 -0.944924,0.1182 -1.705173,0.262821 -2.468917,0.871575 z" />
    <path
       style="fill:#000000;stroke-width:0.264583"
       id="path16"
       d="m 56.853446,24.925136 c 0.2354,2.055426 0.238149,4.130529 0.292317,6.196541 0.07726,2.929612 0.03466,5.860031 -0.0335,8.789226 -0.02772,0.984432 -0.0054,0.522396 -0.06067,1.386408 0,0 3.42384,1.760638 3.42384,1.760638 v 0 c 0.01079,-0.904065 0.01341,-0.423685 -0.01463,-1.441087 -0.06977,-2.949451 -0.120745,-5.899624 -0.07928,-8.850003 0.01876,-2.028545 0.01183,-4.056989 -0.0027,-6.085541 z" />
    <path
       style="fill:#000000;stroke-width:0.264583"
       id="path17"
       d="m 57.632459,27.190355 c 0.682548,1.479979 1.294511,2.990387 1.80776,4.537173 0.948759,2.995652 1.781255,6.026639 2.649855,9.046141 0.796176,2.530184 0.73202,2.148179 4.38685,3.422851 0.08707,0.03037 0.399656,-0.645284 0.413541,-0.6731 0.388485,-1.046385 0.594495,-2.153502 0.746329,-3.255804 0.103952,-1.232855 0.07727,-0.788648 0.140708,-2.12617 0.01894,-0.399613 0.05275,-0.798968 0.05272,-1.199028 -1.19e-4,-1.68388 -0.205158,-3.361222 -0.387194,-5.03192 -0.08689,-0.640776 -0.165354,-1.28275 -0.260675,-1.922328 -0.216654,-1.341474 -0.444979,-2.726592 -0.644171,-4.071381 -0.269404,-1.818791 -0.479856,-3.635455 -0.642154,-5.466522 -0.03142,-0.474017 -0.06284,-0.948034 -0.09426,-1.422051 0,0 -3.26666,-1.629389 -3.26666,-1.629389 v 0 c 0.05089,0.485521 0.101772,0.97104 0.15266,1.456561 0.06003,0.546467 0.344524,3.160776 0.408458,3.636748 0.351412,2.616147 0.89639,5.205616 1.156772,7.834796 0.06034,0.596993 0.133966,1.192792 0.18102,1.790978 0.166901,2.121797 0.129947,4.255976 -0.170297,6.364523 -0.184888,1.048176 -0.39184,2.106448 -0.776219,3.102216 -0.786127,1.545672 -1.52642,-0.473827 2.94775,2.33563 0.0944,0.05928 -0.245944,0.0013 -0.325456,-0.0769 -0.247269,-0.242967 -0.614381,-1.312569 -0.686179,-1.495578 -0.98684,-2.971202 -1.824749,-5.987193 -2.593429,-9.021771 -0.09994,-0.332507 -0.190569,-0.667959 -0.299829,-0.997521 -0.390543,-1.178034 -0.939911,-2.297401 -1.30179,-3.485637 z" />
    <path
       style="fill:#000000;stroke-width:0.264583"
       id="path18"
       d="m 55.440979,14.701578 c 1.073136,-0.899465 2.425208,-1.373487 3.753665,-1.748529 0.987941,-0.23282 1.986303,-0.35343 3.000557,-0.243461 1.234787,0.133882 2.403517,0.536747 3.577161,0.917416 1.767502,0.518099 3.49684,1.226532 5.310595,1.580772 0.280099,0.0547 0.564372,0.08531 0.846556,0.127963 1.513208,0.140779 3.051262,0.31519 4.546505,-0.06565 0.344159,-0.08766 0.67547,-0.219688 1.013206,-0.329533 0.37815,-0.195712 0.77154,-0.364432 1.134448,-0.587142 0.417944,-0.256487 0.80721,-0.557247 1.202714,-0.847143 1.628947,-1.19398 3.017681,-2.482868 4.42894,-3.9205722 1.061365,-1.116076 2.122736,-2.232409 3.19872,-3.334422 0,0 -3.239286,-1.968368 -3.239286,-1.968368 v 0 c -1.009105,1.145416 -2.003975,2.303452 -3.063439,3.403524 -1.045167,1.053835 -2.099389,2.066001 -3.26227,2.9917202 -0.687803,0.547531 -1.574263,1.217404 -2.348224,1.640237 -0.366678,0.200326 -0.76331,0.34014 -1.144966,0.510209 -0.333481,0.09244 -0.661787,0.206142 -1.000443,0.277326 -1.482484,0.311607 -3.01249,0.118972 -4.498131,-0.05052 -2.063268,-0.374978 -4.054477,-1.03188 -6.042916,-1.688515 -1.207164,-0.374134 -2.406187,-0.757431 -3.674991,-0.860264 -1.052243,-0.08528 -2.088171,0.06735 -3.109526,0.308721 -1.401046,0.420124 -2.809862,0.943026 -3.992483,1.825009 z" />
    <path
       style="fill:#000000;stroke-width:0.264583"
       id="path19"
       d="m 72.586344,14.871001 c 0.05949,1.272749 0.05777,2.547257 0.06455,3.821065 -0.0092,0.311687 -0.01209,0.62362 -0.02756,0.935061 -0.03724,0.749948 -0.10686,1.497962 -0.152596,2.247442 -0.0922,1.510893 -0.139682,3.021351 -0.178157,4.5344 -0.08026,3.278831 -0.09014,6.558611 -0.163055,9.837505 -0.02535,1.453864 -0.0665,2.907374 -0.09839,4.361095 0.01773,0.835374 -0.04161,1.667597 -0.108836,2.499595 -0.0096,0.120756 -0.01918,0.241509 -0.02878,0.362265 0,0 3.473918,1.798286 3.473918,1.798286 v 0 c 0.006,-0.121788 0.01204,-0.243576 0.01807,-0.365363 0.04988,-0.841484 0.151273,-1.681822 0.118824,-2.525771 -0.03635,-1.48608 -0.07938,-2.97207 -0.09691,-4.458536 -0.04969,-3.288133 -0.02904,-6.577692 0.08451,-9.864455 0.06036,-1.299644 0.07854,-1.861148 0.166796,-3.133206 0.0826,-1.19058 0.218691,-2.3749 0.318135,-3.563774 0.02609,-0.31201 0.0429,-0.624726 0.06436,-0.93709 0.0067,-1.251871 0.0041,-2.504522 0.06455,-3.755287 z" />
    <path
       style="fill:#000000;stroke-width:0.264583"
       id="path20"
       d="m 80.268214,22.915324 c -0.02577,1.600409 -0.04119,3.200595 -0.04818,4.801372 -0.02866,2.282984 -0.0016,4.567359 -0.08198,6.849345 -0.07386,1.273046 -0.09724,2.55015 -0.294013,3.811506 -0.131992,0.677283 -0.244954,1.356177 -0.305419,2.043652 -0.04611,0.446392 -0.06277,0.882917 0.16836,1.279986 1.680337,1.577054 3.791003,2.273673 5.934059,2.77545 1.3608,0.302701 2.687024,0.592304 4.083859,0.432165 1.012939,-0.22592 1.245751,-0.558157 1.596369,-1.495396 0.298855,-1.179394 0.286195,-2.411145 0.284353,-3.619767 0.003,-1.635475 0.0034,-3.270917 0.0019,-4.906397 -0.0013,-1.296834 0.01839,-2.593525 0.02209,-3.890332 -0.0024,-1.182227 -0.03726,-2.363907 0.07793,-3.541623 0.03175,-0.209508 0.0635,-0.419018 0.09526,-0.628528 0,0 -3.39901,-1.79642 -3.39901,-1.79642 v 0 c -0.03208,0.214042 -0.06416,0.428082 -0.09624,0.642125 -0.03057,0.223435 -0.07021,0.445817 -0.09172,0.670308 -0.09222,0.962142 0.01111,1.93506 -0.03101,2.899133 0.005,1.306015 0.02712,2.611863 0.03088,3.917894 0.0044,1.632715 0.01802,3.265641 -0.0043,4.898236 -0.03534,1.155465 -0.02077,2.332578 -0.302964,3.460925 -0.295182,0.804574 -0.488259,0.980215 -1.346475,1.138047 -1.335873,0.103105 -2.6513,-0.183147 -3.945006,-0.494332 -0.629489,-0.171299 -1.244648,-0.350837 -1.854732,-0.582075 -0.115813,-0.04389 -0.451628,-0.200321 -0.345734,-0.136091 2.879114,1.746321 4.280247,2.237795 2.955039,1.76171 -0.442018,-0.186537 -0.352208,-0.564087 -0.339058,-0.973667 0.03641,-0.685715 0.126074,-1.36566 0.239146,-2.042882 0.03943,-0.265539 0.12392,-0.803164 0.142848,-1.063993 0.06848,-0.943735 0.01741,-1.896298 0.07656,-2.840607 0.03515,-2.292162 -0.02582,-4.585313 0.03521,-6.877446 0.04122,-1.566487 0.07451,-3.139924 0.266406,-4.696542 z" />
    <path
       style="fill:#000000;stroke-width:0.264583"
       id="path21"
       d="m 90.890525,19.919912 c 0.616792,0.711153 1.158381,1.482416 1.734222,2.226143 1.333237,1.796609 2.489477,3.714049 3.585057,5.662102 1.52692,2.689101 2.88123,5.464755 4.136436,8.288954 1.04832,2.454955 1.7588,5.031568 2.37917,7.622074 0.12042,0.563505 0.23866,1.127559 0.36947,1.68878 0.0153,0.06545 -0.0108,0.162592 0.0476,0.195922 1.15507,0.659677 2.35703,1.233643 3.53555,1.850466 0,0 -3.35711,-2.142847 -3.35711,-2.142847 v 0 c 1.13931,0.643766 2.27862,1.287529 3.41794,1.931294 -0.0398,-0.05397 -0.0912,-0.101026 -0.11931,-0.161903 -0.2517,-0.545862 -0.30235,-1.170001 -0.49158,-1.73467 -0.71763,-2.610278 -1.4762,-5.218493 -2.47921,-7.735244 -0.39498,-0.908238 -0.78812,-1.834475 -1.21493,-2.728704 -0.90533,-1.89676 -1.94116,-3.726918 -2.911556,-5.590127 -0.4123,-0.776023 -0.90227,-1.722514 -1.35464,-2.486321 -0.63208,-1.067239 -1.32781,-2.100689 -2.00501,-3.139054 -0.54991,-0.728765 -1.08118,-1.470808 -1.6306,-2.199682 z" />
    <path
       style="fill:#000000;stroke-width:0.264583"
       id="path22"
       d="m 96.090014,46.07593 c -0.10968,-1.596496 -0.0828,-3.194527 0.0225,-4.789895 0.22035,-2.315798 0.56457,-4.616858 1.17813,-6.861972 0.69351,-2.240526 1.81811,-4.315639 2.925616,-6.372799 0.4643,-0.921903 0.94945,-1.83271 1.44444,-2.738379 0,0 -3.287086,-1.878216 -3.287086,-1.878216 v 0 c -0.45561,0.925325 -0.90165,1.85542 -1.37497,2.771918 -1.11762,2.082522 -2.25523,4.181067 -3.0021,6.430182 -0.583741,2.275633 -0.92254,4.598529 -1.193587,6.930612 -0.06597,0.74246 -0.133308,1.398169 -0.165269,2.140751 -0.03684,0.855814 -0.0016,1.715154 -0.07699,2.569515 z" />
    <circle
       id="path23"
       style="fill:#000000;stroke:#000000;stroke-width:0.264583"
       cx="74.586189"
       cy="16.185152"
       r="0.0063971723" />
    <path
       style="fill:#000000;stroke-width:0.264583"
       id="path25"
       d="m 76.110715,17.332245 c -0.03977,-0.164571 0.0092,-0.33464 0.03607,-0.497782 0.0259,-0.176742 0.081,-0.34699 0.108087,-0.523973 0.01048,-0.151307 0.05804,-0.295029 0.106725,-0.437369 0.04316,-0.158787 0.05542,-0.324382 0.07473,-0.487506 0.01484,-0.07811 0.03283,-0.155461 0.04805,-0.233489 0,0 -3.454387,-1.857637 -3.454387,-1.857637 v 0 c -0.02072,0.08255 -0.03401,0.165105 -0.04913,0.248846 -0.03667,0.147323 -0.05066,0.298024 -0.07277,0.447963 -0.03727,0.16691 -0.09652,0.328512 -0.122331,0.498107 -0.01511,0.176986 -0.04506,0.351663 -0.103933,0.519978 -0.01881,0.177104 -0.04451,0.355097 -0.100441,0.524579 z" />
    <path
       style="fill:#000000;stroke-width:0.264583"
       d="m 41.207308,43.848802 c 0.06404,0.04803 0.144082,0.208119 0.192109,0.144082 0.04803,-0.06404 -0.272153,-0.144082 -0.192109,-0.144082 0.151877,0 0.290039,0.09076 0.432245,0.144082 0.02998,0.01124 -0.06607,0.01124 -0.09605,0 -0.114158,-0.04281 -0.412354,-0.04888 -0.336191,-0.144082 0.111813,-0.139763 0.351113,-0.07074 0.528299,-0.09605 0.06675,-0.0095 0.240136,-0.03955 0.240136,0.04803 0.474152,-0.177815 0.247433,-0.144087 0.672377,-0.144087 0.403243,0 0.79986,0.01364 1.200679,-0.04803 0.05004,-0.0077 0.09371,-0.04299 0.144082,-0.04803 0.298024,-0.0298 0.616563,0.04553 0.912516,0 0.09863,-0.01517 0.905908,-0.188805 1.008571,-0.240136 0.0405,-0.02025 0.0531,-0.08174 0.09605,-0.09605 0.06075,-0.02025 0.129105,0.01145 0.192109,0 0.410585,-0.07465 0.829389,-0.240136 1.248706,-0.240136"
       id="path26"
       inkscape:export-filename="path26.svg"
       inkscape:export-xdpi="96"
       inkscape:export-ydpi="96" />
  </g>
</svg>
